<svg width="21" height="20" viewBox="0 0 21 20" fill="none" xmlns="http://www.w3.org/2000/svg">
<g clip-path="url(#clip0_2122_1796)">
<path d="M10.5 2.08331C10.8315 2.08331 11.1495 2.21501 11.3839 2.44943C11.6183 2.68385 11.75 3.00179 11.75 3.33331V7.83498L15.6483 5.58331C15.9353 5.42017 16.2751 5.37714 16.5937 5.46363C16.9122 5.55011 17.1836 5.75909 17.3487 6.04495C17.5137 6.3308 17.559 6.67034 17.4746 6.98946C17.3903 7.30858 17.1831 7.58138 16.8983 7.74831L13 9.99998L16.8983 12.2508C17.1831 12.4178 17.3903 12.6905 17.4746 13.0097C17.559 13.3288 17.5137 13.6683 17.3487 13.9542C17.1836 14.24 16.9122 14.449 16.5937 14.5355C16.2751 14.622 15.9353 14.579 15.6483 14.4158L11.75 12.1658V16.6666C11.75 16.9982 11.6183 17.3161 11.3839 17.5505C11.1495 17.785 10.8315 17.9166 10.5 17.9166C10.1685 17.9166 9.85053 17.785 9.61611 17.5505C9.38169 17.3161 9.25 16.9982 9.25 16.6666V12.165L5.35166 14.4166C5.20945 14.5 5.05215 14.5544 4.88882 14.5768C4.72549 14.5991 4.55935 14.5889 4.39998 14.5468C4.24061 14.5046 4.09114 14.4314 3.96019 14.3313C3.82924 14.2311 3.71939 14.1061 3.63696 13.9633C3.55453 13.8205 3.50116 13.6629 3.47991 13.4994C3.45866 13.3359 3.46996 13.1699 3.51315 13.0108C3.55634 12.8517 3.63058 12.7027 3.73158 12.5724C3.83258 12.4421 3.95836 12.3331 4.10166 12.2516L8 9.99998L4.10166 7.74915C3.8169 7.58221 3.60974 7.30941 3.52537 6.99029C3.441 6.67118 3.48627 6.33164 3.65132 6.04578C3.81637 5.75992 4.08778 5.55095 4.40633 5.46446C4.72489 5.37798 5.06472 5.421 5.35166 5.58415L9.25 7.83415V3.33331C9.25 3.00179 9.38169 2.68385 9.61611 2.44943C9.85053 2.21501 10.1685 2.08331 10.5 2.08331Z" fill="#1D252D"/>
</g>
<defs>
<clipPath id="clip0_2122_1796">
<rect width="20" height="20" fill="white" transform="translate(0.5)"/>
</clipPath>
</defs>
</svg>
