<svg width="20" height="20" viewBox="0 0 20 20" fill="none" xmlns="http://www.w3.org/2000/svg">
<path d="M1.66663 17.5H0.916626H1.66663ZM1.66663 18.3333H0.916626V19.0833H1.66663V18.3333ZM2.49996 3.33331V4.08331H17.5V3.33331V2.58331H2.49996V3.33331ZM17.5 3.33331V4.08331C17.546 4.08331 17.5833 4.12062 17.5833 4.16665H18.3333H19.0833C19.0833 3.2922 18.3744 2.58331 17.5 2.58331V3.33331ZM18.3333 4.16665H17.5833V14.1666H18.3333H19.0833V4.16665H18.3333ZM14.1666 18.3333V17.5833H2.49996V18.3333V19.0833H14.1666V18.3333ZM1.66663 17.5H2.41663V4.16665H1.66663H0.916626V17.5H1.66663ZM1.66663 4.16665H2.41663C2.41663 4.12062 2.45394 4.08331 2.49996 4.08331V3.33331V2.58331C1.62551 2.58331 0.916626 3.2922 0.916626 4.16665H1.66663ZM18.3333 14.1666H17.5833V16.3333H18.3333H19.0833V14.1666H18.3333ZM16.3333 18.3333V17.5833H14.1666V18.3333V19.0833H16.3333V18.3333ZM2.49996 18.3333V17.5833H1.66663V18.3333V19.0833H2.49996V18.3333ZM1.66663 18.3333H2.41663V17.5H1.66663H0.916626V18.3333H1.66663ZM18.3333 16.3333H17.5833C17.5833 17.0237 17.0236 17.5833 16.3333 17.5833V18.3333V19.0833C17.8521 19.0833 19.0833 17.8521 19.0833 16.3333H18.3333Z" fill="#FF375E"/>
<path d="M1.66663 8.33331H18.3333" stroke="#FF375E" stroke-width="1.5" stroke-linejoin="round"/>
<path d="M7.08337 1.66669V5.00002" stroke="#FF375E" stroke-width="1.5" stroke-linejoin="round"/>
<path d="M12.9166 1.66669V5.00002" stroke="#FF375E" stroke-width="1.5" stroke-linejoin="round"/>
<path d="M5.83337 18.3333H14.1667" stroke="#FF375E" stroke-width="1.5" stroke-linejoin="round"/>
</svg>
