<svg width="24" height="24" viewBox="0 0 24 24" fill="none" xmlns="http://www.w3.org/2000/svg">
<path d="M3 19.5H3.65H3ZM3 21H2.35V21.65H3V21ZM19.5 3V2.35H4.5V3V3.65H19.5V3ZM4.5 3V2.35C3.31259 2.35 2.35 3.31259 2.35 4.5H3H3.65C3.65 4.03056 4.03056 3.65 4.5 3.65V3ZM3 4.5H2.35V19.5H3H3.65V4.5H3ZM4.5 21V21.65H17.5V21V20.35H4.5V21ZM21 17.5H21.65V4.5H21H20.35V17.5H21ZM21 4.5H21.65C21.65 3.3126 20.6874 2.35 19.5 2.35V3V3.65C19.9695 3.65 20.35 4.03055 20.35 4.5H21ZM17.5 21V21.65H19V21V20.35H17.5V21ZM21 19H21.65V17.5H21H20.35V19H21ZM3 19.5H2.35V21H3H3.65V19.5H3ZM3 21V21.65H4.5V21V20.35H3V21ZM19 21V21.65C20.4636 21.65 21.65 20.4636 21.65 19H21H20.35C20.35 19.7456 19.7456 20.35 19 20.35V21Z" fill="#FF375E"/>
<path d="M7.5 10.5H16.5" stroke="#FF375E" stroke-width="1.3" stroke-linejoin="round"/>
<path d="M7.5 13.5H16.5" stroke="#FF375E" stroke-width="1.3" stroke-linejoin="round"/>
<path d="M16.5 10.5L13 7" stroke="#FF375E" stroke-width="1.3" stroke-linejoin="round"/>
<path d="M11 17L7.5 13.5" stroke="#FF375E" stroke-width="1.3" stroke-linejoin="round"/>
</svg>
