<svg width="24" height="24" viewBox="0 0 24 24" fill="none" xmlns="http://www.w3.org/2000/svg">
<path d="M12 1.5C14.8993 1.5 17.5252 2.67562 19.4248 4.5752C21.3244 6.4748 22.5 9.10067 22.5 12C22.5 14.8993 21.3244 17.5252 19.4248 19.4248C17.5252 21.3244 14.8993 22.5 12 22.5C9.10067 22.5 6.4748 21.3244 4.5752 19.4248C2.67562 17.5252 1.5 14.8993 1.5 12C1.5 9.10067 2.67562 6.4748 4.5752 4.5752C6.4748 2.67562 9.10067 1.5 12 1.5ZM12 2.5C9.37654 2.5 7.00196 3.56252 5.28223 5.28223C3.56252 7.00196 2.5 9.37654 2.5 12C2.5 14.6235 3.56252 16.9981 5.28223 18.7178C7.00196 20.4375 9.37654 21.5 12 21.5C14.6235 21.5 16.9981 20.4375 18.7178 18.7178C20.4375 16.9981 21.5 14.6235 21.5 12C21.5 9.37654 20.4375 7.00196 18.7178 5.28223C16.9981 3.56252 14.6235 2.5 12 2.5Z" fill="#ED0C00"/>
<rect x="11.5" y="6" width="1" height="8" fill="#ED0C00"/>
<rect x="11" y="16" width="2" height="2" fill="#ED0C00"/>
</svg>
