<svg width="20" height="20" viewBox="0 0 20 20" fill="none" xmlns="http://www.w3.org/2000/svg">
<g clip-path="url(#clip0_2608_1712)">
<path d="M10.0001 18.3334C12.3012 18.3334 14.3846 17.4006 15.8926 15.8926C17.4007 14.3845 18.3334 12.3012 18.3334 10C18.3334 7.69885 17.4007 5.61552 15.8926 4.10746C14.3846 2.59943 12.3012 1.66669 10.0001 1.66669C7.69891 1.66669 5.61558 2.59943 4.10752 4.10746C2.59949 5.61552 1.66675 7.69885 1.66675 10C1.66675 12.3012 2.59949 14.3845 4.10752 15.8926C5.61558 17.4006 7.69891 18.3334 10.0001 18.3334Z" stroke="#4F008C" stroke-width="1.5" stroke-linejoin="round"/>
<path d="M10.8333 7.56887H9.47456V5.83331H10.8333V7.56887ZM9.47456 15V10.0744H8.33325V8.72998H10.8333V15H9.47456Z" fill="#4F008C"/>
</g>
<defs>
<clipPath id="clip0_2608_1712">
<rect width="20" height="20" fill="white"/>
</clipPath>
</defs>
</svg>
