<svg width="20" height="20" viewBox="0 0 20 20" fill="none" xmlns="http://www.w3.org/2000/svg">
<g clip-path="url(#clip0_2608_1864)">
<path d="M10.0001 18.3333C12.3012 18.3333 14.3846 17.4006 15.8926 15.8925C17.4007 14.3845 18.3334 12.3012 18.3334 9.99999C18.3334 7.69882 17.4007 5.61549 15.8926 4.10743C14.3846 2.5994 12.3012 1.66666 10.0001 1.66666C7.69891 1.66666 5.61558 2.5994 4.10752 4.10743C2.59949 5.61549 1.66675 7.69882 1.66675 9.99999C1.66675 12.3012 2.59949 14.3845 4.10752 15.8925C5.61558 17.4006 7.69891 18.3333 10.0001 18.3333Z" stroke="#00C48C" stroke-width="1.5" stroke-linejoin="round"/>
<path d="M6.66675 10L9.16675 12.5L16.5 5" stroke="#00C48C" stroke-width="1.5" stroke-linejoin="round"/>
</g>
<defs>
<clipPath id="clip0_2608_1864">
<rect width="20" height="20" fill="white"/>
</clipPath>
</defs>
</svg>
