<svg width="24" height="24" viewBox="0 0 24 24" fill="none" xmlns="http://www.w3.org/2000/svg">
<path d="M3 7.5L9.6857 12.7689C10.25 13.25 11.4141 14 12.5 13C13.6446 11.9459 12.75 10.75 12.5 10.5L8.5 7.5" stroke="#00C48C" stroke-width="1.3" stroke-linejoin="round"/>
<path d="M2 4H13.5L19 9" stroke="#00C48C" stroke-width="1.3" stroke-linejoin="round"/>
<path d="M4.5 16.5L22 16.5096" stroke="#00C48C" stroke-width="1.3" stroke-linejoin="round"/>
<path d="M4.5 20H3.85V20.65H4.5V20ZM22 9H22.65C22.65 8.64101 22.359 8.35 22 8.35V9ZM4.5 9H3.85V20H4.5H5.15V9H4.5ZM4.5 20V20.65H20V20V19.35H4.5V20ZM22 18H22.65V9H22H21.35V18H22ZM22 9V8.35H11.0001V9V9.65H22V9ZM20 20V20.65C21.4636 20.65 22.65 19.4636 22.65 18H22H21.35C21.35 18.7456 20.7456 19.35 20 19.35V20Z" fill="#00C48C"/>
</svg>
