<svg width="64" height="64" viewBox="0 0 64 64" fill="none" xmlns="http://www.w3.org/2000/svg">
<path d="M39.9998 5.33333L41.4141 3.91912C41.039 3.54405 40.5303 3.33333 39.9998 3.33333V5.33333ZM53.3332 18.6667H55.3332C55.3332 18.1362 55.1225 17.6275 54.7474 17.2525L53.3332 18.6667ZM10.6665 58.6667H8.6665V60.6667H10.6665V58.6667ZM10.6665 8H12.6665C12.6665 7.63181 12.965 7.33333 13.3332 7.33333V5.33333V3.33333C10.7558 3.33333 8.6665 5.42267 8.6665 8H10.6665ZM13.3332 5.33333V7.33333H39.9998V5.33333V3.33333H13.3332V5.33333ZM39.9998 5.33333L38.5856 6.74755L51.919 20.0809L53.3332 18.6667L54.7474 17.2525L41.4141 3.91912L39.9998 5.33333ZM53.3332 18.6667H51.3332V50.6667H53.3332H55.3332V18.6667H53.3332ZM45.3332 58.6667V56.6667H13.3332V58.6667V60.6667H45.3332V58.6667ZM10.6665 56H12.6665V8H10.6665H8.6665V56H10.6665ZM53.3332 50.6667H51.3332V56.6667H53.3332H55.3332V50.6667H53.3332ZM51.3332 58.6667V56.6667H45.3332V58.6667V60.6667H51.3332V58.6667ZM13.3332 58.6667V56.6667H10.6665V58.6667V60.6667H13.3332V58.6667ZM10.6665 58.6667H12.6665V56H10.6665H8.6665V58.6667H10.6665ZM53.3332 56.6667H51.3332V56.6667V58.6667V60.6667C53.5423 60.6667 55.3332 58.8758 55.3332 56.6667H53.3332Z" fill="#89979F"/>
<path d="M21.3335 26.6667H42.6668" stroke="#89979F" stroke-width="4" stroke-linejoin="round"/>
<path d="M21.3335 37.3333H34.6668" stroke="#89979F" stroke-width="4" stroke-linejoin="round"/>
</svg>
