<svg width="70" height="61" viewBox="0 0 70 61" fill="none" xmlns="http://www.w3.org/2000/svg">
<g id="Upload icon">
<path id="Vector" d="M46.7081 5.90771C47.1949 5.90771 47.5898 6.30281 47.59 6.78955C47.59 7.27641 47.195 7.67139 46.7081 7.67139C42.5958 7.67149 38.9051 10.4222 37.7335 14.3589C37.6048 14.7929 37.1702 15.0545 36.7325 14.9751L36.7286 14.98L36.6368 14.9526C36.1704 14.8135 35.904 14.3227 36.0431 13.856L36.1798 13.4302C37.6735 9.06643 41.812 5.90781 46.7081 5.90771Z" fill="#4F008C" stroke="#F9FFF9" stroke-width="0.3"/>
<path id="Vector_2" d="M56.9523 42.645H52.5619C52.1579 42.645 51.8302 42.3173 51.8302 41.9132C51.8302 41.5092 52.1579 41.1815 52.5619 41.1815H56.9523C63.0042 41.1815 67.9282 36.2574 67.9282 30.2055C67.9282 24.1536 63.0042 19.2296 56.9523 19.2296H56.8467C56.6345 19.2296 56.4327 19.1376 56.2937 18.9771C56.1547 18.8167 56.092 18.604 56.1223 18.3938C56.1876 17.9381 56.2206 17.4802 56.2206 17.0344C56.2206 11.7895 51.9529 7.52185 46.708 7.52185C44.6675 7.52185 42.7216 8.1595 41.0804 9.36632C40.7198 9.63132 40.2076 9.51372 39.999 9.11701C35.351 0.266242 23.2108 -0.922326 16.9167 6.77707C14.2653 10.0207 13.2235 14.2402 14.0583 18.3526C14.1503 18.8068 13.8027 19.2301 13.3412 19.2301H13.048C6.99612 19.2301 2.07205 24.1542 2.07205 30.2061C2.07205 36.258 6.99612 41.182 13.048 41.182H17.4383C17.8423 41.182 18.1701 41.5098 18.1701 41.9138C18.1701 42.3178 17.8424 42.6455 17.4383 42.6455H13.048C6.18902 42.6455 0.608521 37.065 0.608521 30.206C0.608521 23.5395 5.88007 18.0807 12.4736 17.7797C11.8542 13.5131 13.0386 9.20949 15.7836 5.85092C22.5223 -2.39306 35.4365 -1.46902 40.8956 7.72362C42.6372 6.63176 44.6301 6.05898 46.7078 6.05898C53.0623 6.05898 58.0977 11.4675 57.6571 17.7865C64.1899 18.1529 69.3914 23.5828 69.3914 30.2055C69.3914 37.065 63.8109 42.645 56.9519 42.645L56.9523 42.645Z" fill="#4F008C"/>
<path id="Vector_3" d="M34.9025 23.0562C45.0722 23.0564 53.3458 31.3307 53.3458 41.5005C53.3456 51.6699 45.072 59.9436 34.9025 59.9438C24.7328 59.9438 16.4584 51.6702 16.4581 41.5005C16.4581 31.3307 24.7325 23.0562 34.9025 23.0562ZM34.9025 24.8208C25.7054 24.8208 18.2228 32.3036 18.2228 41.5005C18.223 50.6973 25.7057 58.1802 34.9025 58.1802C44.099 58.1799 51.5819 50.697 51.5822 41.5005C51.5822 32.3036 44.0991 24.8211 34.9025 24.8208Z" fill="#4F008C" stroke="#F9FFF9" stroke-width="0.3"/>
<g id="arrow">
<path id="Vector_4" d="M35.2374 34.2495C35.6159 34.2497 35.923 34.5575 35.923 34.936V48.8638C35.923 49.2427 35.6158 49.5501 35.2374 49.5503C34.8588 49.5503 34.5509 49.2424 34.5509 48.8638V34.936C34.5509 34.5574 34.8588 34.2495 35.2374 34.2495Z" fill="#4F008C" stroke="#4F008C" stroke-width="0.3"/>
<path id="Vector_5" d="M34.8595 34.3643C35.1255 34.1886 35.4875 34.2179 35.7218 34.4521L40.007 38.7383L40.0948 38.8457C40.2706 39.1119 40.2413 39.4736 40.007 39.708L40.006 39.707C39.9057 39.8075 39.7827 39.8715 39.6534 39.8965L39.5226 39.9082C39.3912 39.9082 39.2588 39.8712 39.1447 39.7959L39.0372 39.708L35.2365 35.9062L31.4357 39.708C31.2015 39.9423 30.8395 39.9717 30.5734 39.7959L30.4659 39.708C30.1981 39.4402 30.1983 39.0062 30.4659 38.7383L34.7521 34.4521L34.8595 34.3643Z" fill="#4F008C" stroke="#4F008C" stroke-width="0.3"/>
</g>
</g>
</svg>
