<svg width="24" height="24" viewBox="0 0 24 24" fill="none" xmlns="http://www.w3.org/2000/svg">
<path d="M3 19.5H3.75H3ZM3 21H2.25V21.75H3V21ZM19.5 8H20.25V4.5H19.5H18.75V8H19.5ZM19.5 4.5H20.25C20.25 3.25737 19.2427 2.25 18 2.25V3V3.75C18.4142 3.75 18.75 4.08578 18.75 4.5H19.5ZM18 3V2.25H4.5V3V3.75H18V3ZM4.5 3V2.25C3.25736 2.25 2.25 3.25736 2.25 4.5H3H3.75C3.75 4.08579 4.08579 3.75 4.5 3.75V3ZM3 4.5H2.25V19.5H3H3.75V4.5H3ZM4.5 21V21.75H17V21V20.25H4.5V21ZM19.5 18.5H20.25V16H19.5H18.75V18.5H19.5ZM17 21V21.75H17.5V21V20.25H17V21ZM19.5 19H20.25V18.5H19.5H18.75V19H19.5ZM3 19.5H2.25V21H3H3.75V19.5H3ZM3 21V21.75H4.5V21V20.25H3V21ZM17.5 21V21.75C19.0188 21.75 20.25 20.5188 20.25 19H19.5H18.75C18.75 19.6904 18.1904 20.25 17.5 20.25V21Z" fill="#4F008C"/>
<path d="M19.5 8H12.5C11.6716 8 11 8.67157 11 9.5V14.5C11 15.3284 11.6716 16 12.5 16H19.5C20.3284 16 21 15.3284 21 14.5V9.5C21 8.67157 20.3284 8 19.5 8Z" stroke="#4F008C" stroke-width="1.5" stroke-linejoin="round"/>
<path d="M14 12C14 11.4477 14.4477 11 15 11C15.5523 11 16 11.4477 16 12C16 12.5523 15.5523 13 15 13C14.4477 13 14 12.5523 14 12Z" fill="#4F008C"/>
</svg>
