<svg width="22" height="22" viewBox="0 0 22 22" fill="none" xmlns="http://www.w3.org/2000/svg">
<path d="M11 0.5C13.8993 0.5 16.5252 1.67562 18.4248 3.5752C20.3244 5.4748 21.5 8.10067 21.5 11C21.5 13.8993 20.3244 16.5252 18.4248 18.4248C16.5252 20.3244 13.8993 21.5 11 21.5C8.10067 21.5 5.4748 20.3244 3.5752 18.4248C1.67562 16.5252 0.5 13.8993 0.5 11C0.5 8.10067 1.67562 5.4748 3.5752 3.5752C5.4748 1.67562 8.10067 0.5 11 0.5ZM11 1.5C8.37654 1.5 6.00196 2.56252 4.28223 4.28223C2.56252 6.00196 1.5 8.37654 1.5 11C1.5 13.6235 2.56252 15.9981 4.28223 17.7178C6.00196 19.4375 8.37654 20.5 11 20.5C13.6235 20.5 15.9981 19.4375 17.7178 17.7178C19.4375 15.9981 20.5 13.6235 20.5 11C20.5 8.37654 19.4375 6.00196 17.7178 4.28223C15.9981 2.56252 13.6235 1.5 11 1.5ZM12.0596 16.5996H10.71V10.165H9V8.9502H12.0596V16.5996ZM12.0596 7.36035H10.71V5.34961H12.0596V7.36035Z" fill="#1D252D"/>
</svg>
